# This file uses centimeters as units for non-parametric coordinates.

mtllib Blanket.mtl
g default
v -6.400576 0.994753 -3.086771
v -5.301826 1.002842 -3.088959
v -4.202229 1.011937 -2.937783
v -3.101756 1.023988 -2.643686
v -2.001454 1.040679 -2.722726
v -0.901248 1.060539 -3.255629
v 0.198862 1.083009 -3.536634
v 1.299001 1.109026 -3.523836
v 2.399288 1.143407 -3.206282
v 3.497328 1.191342 -2.595476
v 4.589263 1.258345 -2.292315
v -6.410965 1.830498 -3.586603
v -5.311979 1.811611 -3.643691
v -4.211842 1.818569 -3.494405
v -3.111543 1.831916 -3.197112
v -2.012099 1.849148 -3.272426
v -0.912920 1.869168 -3.798101
v 0.186050 1.890363 -4.077813
v 1.291832 1.912341 -4.077993
v 2.384270 1.935231 -3.785770
v 3.487549 1.974513 -3.209557
v 4.573979 2.060494 -2.880858
v -6.410597 2.683868 -3.886856
v -5.313858 2.679486 -3.778658
v -4.222869 2.681117 -3.578772
v -3.127535 2.688775 -3.289134
v -2.029984 2.703592 -3.322631
v -0.930995 2.723494 -3.776339
v 0.203672 2.747519 -4.038262
v 1.340298 2.774672 -4.067005
v 2.393722 2.803987 -3.864546
v 3.456254 2.823697 -3.562634
v 4.551496 2.881052 -3.419832
v -6.322891 3.530612 -4.035181
v -5.179329 3.518946 -4.006385
v -4.089049 3.497527 -3.910367
v -3.062403 3.497355 -3.784886
v -2.038928 3.511971 -3.761303
v -0.944478 3.537879 -3.948718
v 0.232570 3.573163 -4.070860
v 1.382641 3.611919 -4.061680
v 2.437288 3.648987 -3.937803
v 3.474094 3.679199 -3.796500
v 4.522776 3.708459 -3.924926
v -6.096780 4.043315 -4.782846
v -4.872201 4.029685 -4.777676
v -3.783746 4.016819 -4.749806
v -2.830684 4.026109 -4.719590
v -1.972736 4.036461 -4.687951
v -0.908382 4.063433 -4.655249
v 0.314483 4.110392 -4.641615
v 1.471460 4.179360 -4.604905
v 2.542072 4.289180 -4.561277
v 3.547864 4.401336 -4.555875
v 4.476507 4.540843 -4.516300
v -5.960179 4.139303 -5.878400
v -4.703932 4.175636 -5.869446
v -3.609926 4.158380 -5.853294
v -2.684735 4.150488 -5.828820
v -1.898107 4.143221 -5.800314
v -0.853542 4.134941 -5.768876
v 0.412562 4.128073 -5.734451
v 1.592810 4.145347 -5.695707
v 2.636985 4.545860 -5.661542
v 3.612488 4.823050 -5.602189
v 4.512488 4.970480 -5.541197
v -5.941168 4.077788 -6.992880
v -4.688450 4.172231 -6.984282
v -3.594499 4.126037 -6.967401
v -2.664285 4.126037 -6.944685
v -1.875159 4.126037 -6.917185
v -0.828093 4.126037 -6.885682
v 0.443352 4.126037 -6.850143
v 1.632282 4.161478 -6.808961
v 2.718490 4.370293 -6.748785
v 3.690779 4.669241 -6.701131
v 4.554634 5.004225 -6.655479
v -6.055984 4.050344 -8.118999
v -4.842422 4.174430 -8.231087
v -3.751250 4.126038 -8.236787
v -2.782435 4.126038 -8.223382
v -1.907918 4.126037 -8.113698
v -0.836275 4.126037 -8.000362
v 0.389746 4.126037 -7.962939
v 1.564583 4.162321 -7.916567
v 2.658978 4.296002 -7.861033
v 3.663102 4.577040 -7.811390
v 4.572844 4.917138 -7.767548
v -6.266327 4.054667 -9.331228
v -5.128383 4.175275 -9.676552
v -4.035121 4.126037 -9.817766
v -2.986022 4.126038 -9.798669
v -1.935974 4.126037 -9.577154
v -0.838337 4.126037 -9.200203
v 0.287366 4.126037 -9.072270
v 1.417089 4.143206 -9.025586
v 2.513527 4.236589 -8.974998
v 3.570176 4.453620 -8.925617
v 4.571698 4.838521 -8.888149
v -6.298357 4.074811 -10.514770
v -5.203924 4.163926 -10.950450
v -4.106986 4.126038 -11.167873
v -3.008198 4.126037 -11.143252
v -1.908947 4.126037 -10.873890
v -0.809005 4.126037 -10.387227
v 0.291158 4.126037 -10.181623
v 1.391470 4.126037 -10.136114
v 2.491894 4.142059 -10.088360
v 3.576709 4.336016 -10.042858
v 4.564761 4.822915 -10.000174
v -6.279239 4.121214 -11.630359
v -5.181518 4.129809 -12.062059
v -4.082957 4.126037 -12.279126
v -2.982851 4.126037 -12.252961
v -1.881957 4.126037 -11.982064
v -0.780353 4.126037 -11.494487
v 0.319698 4.126037 -11.289330
v 1.419665 4.126037 -11.243718
v 2.520198 4.126729 -11.198440
v 3.609637 4.323653 -11.156545
v 4.590499 4.816154 -11.112398
v -6.400288 1.018198 -3.011583
v -5.302234 1.032133 -3.015697
v -5.313727 1.875840 -3.470743
v -6.410732 1.847455 -3.509456
v -4.203418 1.047193 -2.867022
v -4.217322 1.898784 -3.291471
v -3.103775 1.066955 -2.575475
v -3.118688 1.922013 -2.977291
v -2.003223 1.089656 -2.656829
v -2.018513 1.945589 -3.047261
v -0.902393 1.112714 -3.192071
v -0.918094 1.969401 -3.576609
v 0.198231 1.135391 -3.473311
v 0.181809 1.992270 -3.863551
v 1.297790 1.159153 -3.459968
v 1.285190 2.011641 -3.879611
v 2.395000 1.188458 -3.141189
v 2.378055 2.027869 -3.618016
v 3.489351 1.230900 -2.528626
v 3.476295 2.047928 -3.073359
v 4.580308 1.289488 -2.219609
v 4.572689 2.087426 -2.805825
v -5.331589 2.741529 -3.699826
v -6.422283 2.694436 -3.815074
v -4.236883 2.767063 -3.496777
v -3.139009 2.789005 -3.208450
v -2.037996 2.811689 -3.231678
v -0.935747 2.835384 -3.670895
v 0.200879 2.858715 -3.930793
v 1.338974 2.879526 -3.964347
v 2.393771 2.894045 -3.776227
v 3.460685 2.903121 -3.407993
v 4.556835 2.904259 -3.343785
v -5.222084 3.578647 -3.947162
v -6.361732 3.558725 -3.976094
v -4.119662 3.574696 -3.852486
v -3.080616 3.583201 -3.734927
v -2.049049 3.605385 -3.707187
v -0.949619 3.636959 -3.874378
v 0.228658 3.673467 -3.986523
v 1.382514 3.710311 -3.974907
v 2.448933 3.739228 -3.853885
v 3.492464 3.751574 -3.728271
v 4.537551 3.735952 -3.848729
v -4.913499 4.096748 -4.736191
v -6.112209 4.110179 -4.762217
v -3.816184 4.089817 -4.707786
v -2.851750 4.099616 -4.676965
v -1.985555 4.122109 -4.641397
v -0.915226 4.156442 -4.604632
v 0.312899 4.202986 -4.587138
v 1.476187 4.267642 -4.551946
v 2.560520 4.369190 -4.515976
v 3.572672 4.473129 -4.510598
v 4.533674 4.583483 -4.475816
v -4.722947 4.252727 -5.841124
v -5.976428 4.212929 -5.882934
v -3.627831 4.239087 -5.813483
v -2.694956 4.231168 -5.784352
v -1.905241 4.223741 -5.752818
v -0.857511 4.215152 -5.719285
v 0.416503 4.207963 -5.684085
v 1.602242 4.258590 -5.648134
v 2.656007 4.638175 -5.614670
v 3.631811 4.899111 -5.570764
v 4.540856 5.043501 -5.541154
v -4.698996 4.252188 -6.961226
v -5.950368 4.156821 -6.999283
v -3.604743 4.206216 -6.930867
v -2.670994 4.205783 -6.900910
v -1.880600 4.205352 -6.869195
v -0.831818 4.204894 -6.835384
v 0.444606 4.204360 -6.799558
v 1.636303 4.243928 -6.758413
v 2.716275 4.543713 -6.716768
v 3.687921 4.805530 -6.681248
v 4.563168 5.084523 -6.664977
v -4.842324 4.253963 -8.204443
v -6.061811 4.129352 -8.121223
v -3.747082 4.204441 -8.192823
v -2.777475 4.204315 -8.167625
v -1.908216 4.204454 -8.056677
v -0.837526 4.204553 -7.950970
v 0.394447 4.204362 -7.913148
v 1.569242 4.241619 -7.871366
v 2.662930 4.412128 -7.825359
v 3.665001 4.665101 -7.788535
v 4.572490 4.999782 -7.773120
v -5.126406 4.253670 -9.651374
v -6.269206 4.133191 -9.331093
v -4.029720 4.204547 -9.776352
v -2.982014 4.204559 -9.746084
v -1.938716 4.204400 -9.521377
v -0.841914 4.204363 -9.149723
v 0.286491 4.204513 -9.027308
v 1.415754 4.223326 -8.984818
v 2.511580 4.320507 -8.940493
v 3.565386 4.539988 -8.903359
v 4.562495 4.921071 -8.882874
v -5.204235 4.242692 -10.931976
v -6.299314 4.153391 -10.512138
v -4.106556 4.204695 -11.141648
v -3.008335 4.204274 -11.110243
v -1.910217 4.204177 -10.836119
v -0.812141 4.204379 -10.347817
v 0.286236 4.204208 -10.142035
v 1.383779 4.204413 -10.099274
v 2.479930 4.224296 -10.055904
v 3.562775 4.418663 -10.019749
v 4.548645 4.901282 -9.994568
v -5.182307 4.208754 -12.048279
v -6.279669 4.199772 -11.624910
v -4.083506 4.204832 -12.258260
v -2.983880 4.204478 -12.226626
v -1.881860 4.204563 -11.951015
v -0.779895 4.204548 -11.460815
v 0.321728 4.204564 -11.257698
v 1.421213 4.204225 -11.215934
v 2.511872 4.206346 -11.173464
v 3.581162 4.398226 -11.137207
v 4.556889 4.886318 -11.112279
vt 0.762959 0.775297
vt 0.784890 0.775297
vt 0.806821 0.775297
vt 0.828752 0.775297
vt 0.850683 0.775297
vt 0.872614 0.775297
vt 0.894545 0.775297
vt 0.916476 0.775297
vt 0.938407 0.775297
vt 0.960338 0.775297
vt 0.982269 0.775297
vt 0.762959 0.797228
vt 0.784890 0.797228
vt 0.806821 0.797228
vt 0.828752 0.797228
vt 0.850683 0.797228
vt 0.872614 0.797228
vt 0.894545 0.797228
vt 0.916476 0.797228
vt 0.938407 0.797228
vt 0.960338 0.797228
vt 0.982269 0.797228
vt 0.762959 0.819159
vt 0.784890 0.819159
vt 0.806821 0.819159
vt 0.828752 0.819159
vt 0.850683 0.819159
vt 0.872614 0.819159
vt 0.894545 0.819159
vt 0.916476 0.819159
vt 0.938407 0.819159
vt 0.960338 0.819159
vt 0.982269 0.819159
vt 0.762959 0.841090
vt 0.784890 0.841090
vt 0.806821 0.841090
vt 0.828752 0.841090
vt 0.850683 0.841090
vt 0.872614 0.841090
vt 0.894545 0.841090
vt 0.916476 0.841090
vt 0.938407 0.841090
vt 0.960338 0.841090
vt 0.982269 0.841090
vt 0.762959 0.863021
vt 0.784890 0.863021
vt 0.806821 0.863021
vt 0.828752 0.863021
vt 0.850683 0.863021
vt 0.872614 0.863021
vt 0.894545 0.863021
vt 0.916476 0.863021
vt 0.938407 0.863021
vt 0.960338 0.863021
vt 0.982269 0.863021
vt 0.762959 0.884952
vt 0.784890 0.884952
vt 0.806821 0.884952
vt 0.828752 0.884952
vt 0.850683 0.884952
vt 0.872614 0.884952
vt 0.894545 0.884952
vt 0.916476 0.884952
vt 0.938407 0.884952
vt 0.960338 0.884952
vt 0.982269 0.884952
vt 0.762959 0.906883
vt 0.784890 0.906883
vt 0.806821 0.906883
vt 0.828752 0.906883
vt 0.850683 0.906883
vt 0.872614 0.906883
vt 0.894545 0.906883
vt 0.916476 0.906883
vt 0.938407 0.906883
vt 0.960338 0.906883
vt 0.982269 0.906883
vt 0.762959 0.928814
vt 0.784890 0.928814
vt 0.806821 0.928814
vt 0.828752 0.928814
vt 0.850683 0.928814
vt 0.872614 0.928814
vt 0.894545 0.928814
vt 0.916476 0.928814
vt 0.938407 0.928814
vt 0.960338 0.928814
vt 0.982269 0.928814
vt 0.762959 0.950745
vt 0.784890 0.950745
vt 0.806821 0.950745
vt 0.828752 0.950745
vt 0.850683 0.950745
vt 0.872614 0.950745
vt 0.894545 0.950745
vt 0.916476 0.950745
vt 0.938407 0.950745
vt 0.960338 0.950745
vt 0.982269 0.950745
vt 0.762959 0.972676
vt 0.784890 0.972676
vt 0.806821 0.972676
vt 0.828752 0.972676
vt 0.850683 0.972676
vt 0.872614 0.972676
vt 0.894545 0.972676
vt 0.916476 0.972676
vt 0.938407 0.972676
vt 0.960338 0.972676
vt 0.982269 0.972676
vt 0.762959 0.994607
vt 0.784890 0.994607
vt 0.806821 0.994607
vt 0.828752 0.994607
vt 0.850683 0.994607
vt 0.872614 0.994607
vt 0.894545 0.994607
vt 0.916476 0.994607
vt 0.938407 0.994607
vt 0.960338 0.994607
vt 0.982269 0.994607
vt 0.762959 0.775297
vt 0.784890 0.775297
vt 0.784890 0.797228
vt 0.762959 0.797228
vt 0.806821 0.775297
vt 0.806821 0.797228
vt 0.828752 0.775297
vt 0.828752 0.797228
vt 0.850683 0.775297
vt 0.850683 0.797228
vt 0.872614 0.775297
vt 0.872614 0.797228
vt 0.894545 0.775297
vt 0.894545 0.797228
vt 0.916476 0.775297
vt 0.916476 0.797228
vt 0.938407 0.775297
vt 0.938407 0.797228
vt 0.960338 0.775297
vt 0.960338 0.797228
vt 0.982269 0.775297
vt 0.982269 0.797228
vt 0.784890 0.819159
vt 0.762959 0.819159
vt 0.806821 0.819159
vt 0.828752 0.819159
vt 0.850683 0.819159
vt 0.872614 0.819159
vt 0.894545 0.819159
vt 0.916476 0.819159
vt 0.938407 0.819159
vt 0.960338 0.819159
vt 0.982269 0.819159
vt 0.784890 0.841090
vt 0.762959 0.841090
vt 0.806821 0.841090
vt 0.828752 0.841090
vt 0.850683 0.841090
vt 0.872614 0.841090
vt 0.894545 0.841090
vt 0.916476 0.841090
vt 0.938407 0.841090
vt 0.960338 0.841090
vt 0.982269 0.841090
vt 0.784890 0.863021
vt 0.762959 0.863021
vt 0.806821 0.863021
vt 0.828752 0.863021
vt 0.850683 0.863021
vt 0.872614 0.863021
vt 0.894545 0.863021
vt 0.916476 0.863021
vt 0.938407 0.863021
vt 0.960338 0.863021
vt 0.982269 0.863021
vt 0.784890 0.884952
vt 0.762959 0.884952
vt 0.806821 0.884952
vt 0.828752 0.884952
vt 0.850683 0.884952
vt 0.872614 0.884952
vt 0.894545 0.884952
vt 0.916476 0.884952
vt 0.938407 0.884952
vt 0.960338 0.884952
vt 0.982269 0.884952
vt 0.784890 0.906883
vt 0.762959 0.906883
vt 0.806821 0.906883
vt 0.828752 0.906883
vt 0.850683 0.906883
vt 0.872614 0.906883
vt 0.894545 0.906883
vt 0.916476 0.906883
vt 0.938407 0.906883
vt 0.960338 0.906883
vt 0.982269 0.906883
vt 0.784890 0.928814
vt 0.762959 0.928814
vt 0.806821 0.928814
vt 0.828752 0.928814
vt 0.850683 0.928814
vt 0.872614 0.928814
vt 0.894545 0.928814
vt 0.916476 0.928814
vt 0.938407 0.928814
vt 0.960338 0.928814
vt 0.982269 0.928814
vt 0.784890 0.950745
vt 0.762959 0.950745
vt 0.806821 0.950745
vt 0.828752 0.950745
vt 0.850683 0.950745
vt 0.872614 0.950745
vt 0.894545 0.950745
vt 0.916476 0.950745
vt 0.938407 0.950745
vt 0.960338 0.950745
vt 0.982269 0.950745
vt 0.784890 0.972676
vt 0.762959 0.972676
vt 0.806821 0.972676
vt 0.828752 0.972676
vt 0.850683 0.972676
vt 0.872614 0.972676
vt 0.894545 0.972676
vt 0.916476 0.972676
vt 0.938407 0.972676
vt 0.960338 0.972676
vt 0.982269 0.972676
vt 0.784890 0.994607
vt 0.762959 0.994607
vt 0.806821 0.994607
vt 0.828752 0.994607
vt 0.850683 0.994607
vt 0.872614 0.994607
vt 0.894545 0.994607
vt 0.916476 0.994607
vt 0.938407 0.994607
vt 0.960338 0.994607
vt 0.982269 0.994607
vt 0.762959 0.775297
vt 0.784890 0.775297
vt 0.762959 0.797228
vt 0.806821 0.775297
vt 0.828752 0.775297
vt 0.850683 0.775297
vt 0.872614 0.775297
vt 0.894545 0.775297
vt 0.916476 0.775297
vt 0.938407 0.775297
vt 0.960338 0.775297
vt 0.982269 0.775297
vt 0.982269 0.797228
vt 0.762959 0.819159
vt 0.982269 0.819159
vt 0.762959 0.841090
vt 0.982269 0.841090
vt 0.762959 0.863021
vt 0.982269 0.863021
vt 0.762959 0.884952
vt 0.982269 0.884952
vt 0.762959 0.906883
vt 0.982269 0.906883
vt 0.762959 0.928814
vt 0.982269 0.928814
vt 0.762959 0.950745
vt 0.982269 0.950745
vt 0.762959 0.972676
vt 0.982269 0.972676
vt 0.784890 0.994607
vt 0.762959 0.994607
vt 0.806821 0.994607
vt 0.828752 0.994607
vt 0.850683 0.994607
vt 0.872614 0.994607
vt 0.894545 0.994607
vt 0.916476 0.994607
vt 0.938407 0.994607
vt 0.960338 0.994607
vt 0.982269 0.994607
vn -0.023230 0.494577 0.868824
vn -0.082582 0.474976 0.876116
vn -0.103168 0.375073 0.921236
vn -0.049631 0.401024 0.914722
vn -0.197836 0.436112 0.877877
vn -0.206359 0.339254 0.917782
vn -0.097553 0.424439 0.900186
vn -0.109813 0.337259 0.934985
vn 0.222447 0.409396 0.884824
vn 0.235456 0.311540 0.920599
vn 0.319685 0.395359 0.861100
vn 0.314998 0.265550 0.911186
vn 0.112132 0.418957 0.901056
vn 0.120437 0.259998 0.958069
vn -0.129072 0.443493 0.886935
vn -0.106338 0.286547 0.952147
vn -0.345793 0.464723 0.815144
vn -0.315453 0.340810 0.885629
vn -0.321303 0.519821 0.791550
vn -0.304125 0.446632 0.841444
vn -0.235137 0.555519 0.797565
vn -0.193804 0.512560 0.836494
vn -0.110815 0.280784 0.953352
vn -0.073653 0.268664 0.960414
vn -0.183724 0.329630 0.926061
vn -0.107659 0.373556 0.921339
vn 0.171824 0.329571 0.928364
vn 0.260143 0.200089 0.944611
vn 0.105695 0.094648 0.989884
vn -0.080576 0.083982 0.993204
vn -0.243045 0.176066 0.953903
vn -0.188081 0.352319 0.916786
vn -0.061917 0.450241 0.890758
vn -0.060874 0.628562 0.775374
vn -0.046878 0.559956 0.827195
vn -0.093605 0.684485 0.722993
vn -0.067620 0.718606 0.692122
vn 0.052178 0.689235 0.722656
vn 0.100595 0.595927 0.796713
vn 0.029402 0.476145 0.878875
vn -0.075073 0.429749 0.899822
vn -0.144852 0.477988 0.866340
vn -0.070081 0.537864 0.840114
vn 0.012838 0.565566 0.824603
vn -0.012930 0.947058 0.320801
vn -0.015043 0.938632 0.344592
vn -0.017037 0.948293 0.316939
vn -0.024961 0.951202 0.307559
vn -0.014484 0.953304 0.301664
vn -0.008094 0.954970 0.296592
vn -0.030412 0.955201 0.294390
vn -0.111059 0.936645 0.332208
vn -0.156758 0.890478 0.427172
vn -0.104595 0.842182 0.528952
vn -0.073654 0.819424 0.568437
vn -0.009532 0.998581 0.052403
vn -0.033213 0.998450 0.044671
vn 0.008837 0.998392 0.055987
vn -0.001874 0.998916 0.046510
vn -0.004560 0.999360 0.035468
vn -0.005769 0.999803 0.019014
vn -0.024488 0.999700 0.001149
vn -0.152424 0.988305 0.004454
vn -0.242651 0.968311 0.059109
vn -0.204180 0.968587 0.141952
vn -0.187249 0.965477 0.181087
vn -0.017295 0.999782 -0.011741
vn -0.072061 0.997315 -0.013037
vn 0.019563 0.999749 -0.010880
vn 0.002722 0.999932 -0.011337
vn 0.002597 0.999966 -0.007884
vn 0.002065 0.999987 -0.004712
vn -0.016395 0.999859 -0.003705
vn -0.144988 0.989007 -0.029058
vn -0.254158 0.964005 -0.078093
vn -0.264411 0.960812 -0.083227
vn -0.276950 0.958843 -0.062592
vn -0.023441 0.999725 0.000901
vn -0.094787 0.995445 0.010238
vn 0.022390 0.999743 -0.003597
vn 0.000139 1.000000 -0.000436
vn 0.000099 1.000000 -0.000345
vn 0.000126 1.000000 -0.000198
vn -0.013747 0.999905 -0.001266
vn -0.094907 0.995271 -0.020704
vn -0.201023 0.977488 -0.064095
vn -0.286368 0.954300 -0.085471
vn -0.336425 0.938227 -0.080920
vn -0.028225 0.999596 0.003346
vn -0.096174 0.995253 0.014900
vn 0.022130 0.999747 -0.003919
vn 0.000107 1.000000 -0.000024
vn 0.000022 1.000000 -0.000066
vn -0.000000 1.000000 -0.000081
vn -0.007452 0.999967 -0.003318
vn -0.048255 0.998558 -0.023535
vn -0.142934 0.987872 -0.060661
vn -0.288392 0.954840 -0.071486
vn -0.373941 0.925397 -0.061722
vn -0.016864 0.999856 -0.001859
vn -0.074112 0.997228 0.006689
vn 0.014061 0.999887 -0.005410
vn 0.000155 1.000000 0.000048
vn -0.000026 1.000000 0.000049
vn -0.000036 1.000000 0.000050
vn -0.001960 0.999996 -0.002022
vn -0.016791 0.999727 -0.016241
vn -0.104761 0.993586 -0.042568
vn -0.301764 0.952193 -0.047617
vn -0.420244 0.906635 -0.037522
vn -0.007311 0.999949 -0.007018
vn -0.042950 0.999066 0.004775
vn 0.007733 0.999947 -0.006790
vn 0.000159 1.000000 0.000208
vn -0.000113 1.000000 0.000255
vn -0.000101 1.000000 0.000240
vn 0.000042 1.000000 0.000160
vn -0.004812 0.999980 -0.004151
vn -0.092659 0.995590 -0.014657
vn -0.311047 0.950176 -0.020380
vn -0.443039 0.896291 -0.019474
vn -0.025345 -0.539858 -0.841375
vn -0.003856 -0.405073 -0.914276
vn 0.066985 -0.383145 -0.921256
vn 0.047633 -0.552725 -0.832001
vn 0.191916 -0.353536 -0.915522
vn 0.173780 -0.556611 -0.812395
vn 0.103165 -0.360856 -0.926898
vn 0.084302 -0.562382 -0.822569
vn -0.240028 -0.338042 -0.910008
vn -0.197438 -0.552683 -0.809667
vn -0.309516 -0.289628 -0.905713
vn -0.292042 -0.536992 -0.791424
vn -0.112372 -0.286733 -0.951397
vn -0.095799 -0.557975 -0.824310
vn 0.117596 -0.310355 -0.943319
vn 0.132836 -0.564890 -0.814404
vn 0.319104 -0.367494 -0.873568
vn 0.341549 -0.554353 -0.758971
vn 0.326380 -0.471294 -0.819364
vn 0.332255 -0.566548 -0.754076
vn 0.243752 -0.525876 -0.814887
vn 0.264212 -0.580245 -0.770395
vn 0.038622 -0.235039 -0.971218
vn 0.088026 -0.231745 -0.968786
vn 0.179047 -0.257757 -0.949475
vn 0.102242 -0.290552 -0.951381
vn -0.185068 -0.242550 -0.952323
vn -0.272034 -0.117057 -0.955141
vn -0.106386 -0.019034 -0.994143
vn 0.090185 -0.020080 -0.995723
vn 0.245164 -0.127003 -0.961127
vn 0.214065 -0.320575 -0.922718
vn 0.126692 -0.432310 -0.892780
vn 0.032055 -0.552039 -0.833202
vn 0.050173 -0.616461 -0.785785
vn 0.091015 -0.669556 -0.737164
vn 0.063148 -0.701265 -0.710099
vn -0.067417 -0.667305 -0.741727
vn -0.114380 -0.568770 -0.814505
vn -0.033405 -0.443447 -0.895678
vn 0.080296 -0.398134 -0.913807
vn 0.149680 -0.444509 -0.883180
vn 0.089223 -0.505349 -0.858290
vn 0.022477 -0.541307 -0.840525
vn 0.004593 -0.939361 -0.342899
vn 0.004965 -0.948020 -0.318171
vn 0.013388 -0.947786 -0.318625
vn 0.019848 -0.949974 -0.311697
vn 0.005980 -0.950807 -0.309727
vn 0.003349 -0.951018 -0.309119
vn 0.026391 -0.951653 -0.306040
vn 0.115701 -0.934325 -0.337120
vn 0.172774 -0.885805 -0.430695
vn 0.125183 -0.837345 -0.532149
vn 0.098947 -0.815514 -0.570217
vn 0.030291 -0.998688 -0.041301
vn 0.006726 -0.998839 -0.047700
vn -0.010724 -0.998576 -0.052261
vn -0.000031 -0.998984 -0.045076
vn 0.002167 -0.999266 -0.038245
vn 0.005361 -0.999682 -0.024631
vn 0.017892 -0.999816 -0.006981
vn 0.140713 -0.990046 0.003079
vn 0.246872 -0.968623 -0.028696
vn 0.228451 -0.967607 -0.107460
vn 0.216807 -0.963581 -0.156547
vn 0.071128 -0.997363 0.014390
vn 0.016773 -0.999781 0.012502
vn -0.019692 -0.999751 0.010528
vn -0.002341 -0.999944 0.010285
vn -0.002252 -0.999973 0.006958
vn -0.001744 -0.999991 0.003927
vn 0.012407 -0.999923 -0.000618
vn 0.118277 -0.992678 0.024502
vn 0.245477 -0.965890 0.082446
vn 0.291687 -0.952034 0.092463
vn 0.305761 -0.949519 0.070166
vn 0.094347 -0.995481 -0.010777
vn 0.023756 -0.999717 -0.001552
vn -0.022169 -0.999749 0.003174
vn -0.000000 -1.000000 -0.000000
vn -0.000000 -1.000000 -0.000000
vn -0.000000 -1.000000 -0.000000
vn 0.013011 -0.999915 0.001088
vn 0.076130 -0.997025 0.012076
vn 0.191978 -0.980572 0.040289
vn 0.304251 -0.950383 0.064829
vn 0.351364 -0.933488 0.071714
vn 0.096103 -0.995253 -0.015356
vn 0.028391 -0.999591 -0.003525
vn -0.021961 -0.999751 0.003862
vn -0.000000 -1.000000 0.000000
vn -0.000000 -1.000000 0.000000
vn -0.000000 -1.000000 0.000000
vn 0.007001 -0.999970 0.003247
vn 0.042779 -0.998865 0.020948
vn 0.138813 -0.988838 0.054135
vn 0.291578 -0.954169 0.067409
vn 0.375093 -0.924900 0.062179
vn 0.074241 -0.997219 -0.006567
vn 0.016827 -0.999857 0.001980
vn -0.013806 -0.999889 0.005534
vn -0.000000 -1.000000 0.000000
vn -0.000000 -1.000000 -0.000000
vn -0.000000 -1.000000 0.000000
vn 0.001794 -0.999997 0.001862
vn 0.015128 -0.999765 0.015538
vn 0.103102 -0.993830 0.040878
vn 0.301683 -0.952282 0.046325
vn 0.421561 -0.906031 0.037333
vn 0.042665 -0.999078 -0.004716
vn 0.007269 -0.999948 0.007190
vn -0.007393 -0.999949 0.006936
vn -0.000000 -1.000000 0.000000
vn -0.000000 -1.000000 -0.000000
vn -0.000000 -1.000000 -0.000000
vn -0.000000 -1.000000 -0.000000
vn 0.003613 -0.999987 0.003516
vn 0.091546 -0.995727 0.012114
vn 0.312043 -0.949889 0.018433
vn 0.444603 -0.895518 0.019412
vn -0.010407 0.942253 -0.334740
vn -0.010407 0.942253 -0.334740
vn -0.010407 0.942253 -0.334740
vn -0.010407 0.942253 -0.334740
vn 0.999942 0.009029 -0.005815
vn 0.999942 0.009029 -0.005815
vn 0.999942 0.009029 -0.005815
vn 0.999942 0.009029 -0.005815
vn 0.045648 0.911785 -0.408124
vn 0.045648 0.911785 -0.408124
vn 0.045648 0.911785 -0.408124
vn 0.045648 0.911785 -0.408124
vn 0.116600 0.866642 -0.485115
vn 0.116600 0.866642 -0.485115
vn 0.116600 0.866642 -0.485115
vn 0.116600 0.866642 -0.485115
vn -0.055950 0.822741 -0.565656
vn -0.055950 0.822741 -0.565656
vn -0.055950 0.822741 -0.565656
vn -0.055950 0.822741 -0.565656
vn -0.301516 0.748003 -0.591253
vn -0.301516 0.748003 -0.591253
vn -0.301516 0.748003 -0.591253
vn -0.301516 0.748003 -0.591253
vn -0.175874 0.758494 -0.627499
vn -0.175874 0.758494 -0.627499
vn -0.175874 0.758494 -0.627499
vn -0.175874 0.758494 -0.627499
vn -0.010159 0.778493 -0.627571
vn -0.010159 0.778493 -0.627571
vn -0.010159 0.778493 -0.627571
vn -0.010159 0.778493 -0.627571
vn 0.145795 0.798958 -0.583446
vn 0.145795 0.798958 -0.583446
vn 0.145795 0.798958 -0.583446
vn 0.145795 0.798958 -0.583446
vn 0.248531 0.825713 -0.506390
vn 0.248531 0.825713 -0.506390
vn 0.248531 0.825713 -0.506390
vn 0.248531 0.825713 -0.506390
vn 0.073030 0.893216 -0.443658
vn 0.073030 0.893216 -0.443658
vn 0.073030 0.893216 -0.443658
vn 0.073030 0.893216 -0.443658
vn -0.997506 -0.050494 -0.049326
vn -0.997506 -0.050494 -0.049326
vn -0.997506 -0.050494 -0.049326
vn -0.997506 -0.050494 -0.049326
vn 0.996984 0.031785 0.070798
vn 0.996984 0.031785 0.070798
vn 0.996984 0.031785 0.070798
vn 0.996984 0.031785 0.070798
vn -0.999586 -0.004745 0.028369
vn -0.999586 -0.004745 0.028369
vn -0.999586 -0.004745 0.028369
vn -0.999586 -0.004745 0.028369
vn 0.931295 -0.014894 0.363961
vn 0.931295 -0.014894 0.363961
vn 0.931295 -0.014894 0.363961
vn 0.931295 -0.014894 0.363961
vn -0.992228 0.042492 0.116950
vn -0.992228 0.042492 0.116950
vn -0.992229 0.042492 0.116950
vn -0.992229 0.042492 0.116950
vn 0.898735 0.176714 0.401308
vn 0.898735 0.176714 0.401308
vn 0.898735 0.176714 0.401308
vn 0.898735 0.176714 0.401308
vn -0.883975 0.256925 0.390612
vn -0.883975 0.256925 0.390612
vn -0.883975 0.256925 0.390612
vn -0.883975 0.256925 0.390612
vn 0.969526 0.202869 0.137348
vn 0.969525 0.202869 0.137348
vn 0.969526 0.202869 0.137348
vn 0.969526 0.202869 0.137348
vn -0.819836 0.532766 0.209832
vn -0.819836 0.532766 0.209832
vn -0.819836 0.532766 0.209832
vn -0.819836 0.532766 0.209832
vn 0.986196 0.165204 0.011214
vn 0.986196 0.165204 0.011214
vn 0.986196 0.165204 0.011214
vn 0.986196 0.165204 0.011214
vn -0.972319 0.232779 -0.020227
vn -0.972319 0.232779 -0.020227
vn -0.972319 0.232779 -0.020227
vn -0.972319 0.232779 -0.020227
vn 0.990837 0.088656 -0.101890
vn 0.990837 0.088656 -0.101890
vn 0.990837 0.088656 -0.101890
vn 0.990837 0.088656 -0.101890
vn -0.998685 0.048652 -0.016149
vn -0.998685 0.048652 -0.016149
vn -0.998685 0.048652 -0.016149
vn -0.998685 0.048652 -0.016149
vn 0.984140 0.052135 -0.169560
vn 0.984140 0.052135 -0.169560
vn 0.984140 0.052135 -0.169560
vn 0.984140 0.052135 -0.169560
vn -0.998291 -0.057740 0.009059
vn -0.998291 -0.057740 0.009059
vn -0.998291 -0.057740 0.009059
vn -0.998291 -0.057740 0.009059
vn 0.999357 0.024858 -0.025837
vn 0.999357 0.024858 -0.025837
vn 0.999357 0.024858 -0.025837
vn 0.999357 0.024858 -0.025837
vn -0.987658 -0.156186 0.011718
vn -0.987658 -0.156186 0.011718
vn -0.987658 -0.156186 0.011718
vn -0.987658 -0.156186 0.011718
vn 0.361528 -0.110229 0.925823
vn 0.361528 -0.110229 0.925823
vn 0.361528 -0.110229 0.925822
vn 0.361528 -0.110229 0.925822
vn 0.999812 0.007923 0.017721
vn 0.999812 0.007923 0.017721
vn 0.999812 0.007923 0.017721
vn 0.999812 0.007923 0.017721
vn 0.185845 -0.209291 0.960031
vn 0.185845 -0.209291 0.960031
vn 0.185845 -0.209291 0.960031
vn 0.185845 -0.209291 0.960031
vn -0.025202 -0.287660 0.957401
vn -0.025202 -0.287660 0.957401
vn -0.025202 -0.287660 0.957401
vn -0.025202 -0.287660 0.957401
vn -0.226810 -0.335594 0.914294
vn -0.226810 -0.335594 0.914294
vn -0.226810 -0.335594 0.914294
vn -0.226810 -0.335594 0.914294
vn -0.379731 -0.351353 0.855778
vn -0.379731 -0.351353 0.855778
vn -0.379731 -0.351353 0.855778
vn -0.379731 -0.351353 0.855778
vn -0.168936 -0.376170 0.911020
vn -0.168936 -0.376170 0.911020
vn -0.168936 -0.376170 0.911020
vn -0.168936 -0.376170 0.911020
vn -0.037186 -0.353526 0.934685
vn -0.037186 -0.353526 0.934685
vn -0.037186 -0.353526 0.934685
vn -0.037186 -0.353526 0.934685
vn -0.037525 -0.318312 0.947243
vn -0.037525 -0.318312 0.947243
vn -0.037525 -0.318312 0.947243
vn -0.037525 -0.318312 0.947243
vn 0.014351 -0.273023 0.961901
vn 0.014351 -0.273023 0.961901
vn 0.014351 -0.273023 0.961901
vn 0.014351 -0.273023 0.961901
vn -0.948341 -0.317050 -0.011363
vn -0.948341 -0.317050 -0.011363
vn -0.948341 -0.317050 -0.011363
vn -0.948341 -0.317050 -0.011363
vn 0.026191 -0.122142 0.992167
vn 0.026191 -0.122142 0.992167
vn 0.026191 -0.122142 0.992167
vn 0.026191 -0.122142 0.992167
s 1
g Blanket
usemtl initialShadingGroup
f 122/243/1 123/244/2 124/13/3 125/245/4
f 123/244/2 126/246/5 127/14/6 124/13/3
f 126/246/5 128/247/7 129/15/8 127/14/6
f 128/247/7 130/248/9 131/16/10 129/15/8
f 130/248/9 132/249/11 133/17/12 131/16/10
f 132/249/11 134/250/13 135/18/14 133/17/12
f 134/250/13 136/251/15 137/19/16 135/18/14
f 136/251/15 138/252/17 139/20/18 137/19/16
f 138/252/17 140/253/19 141/21/20 139/20/18
f 140/253/19 142/254/21 143/255/22 141/21/20
f 125/245/4 124/13/3 144/24/23 145/256/24
f 124/13/3 127/14/6 146/25/25 144/24/23
f 127/14/6 129/15/8 147/26/26 146/25/25
f 129/15/8 131/16/10 148/27/27 147/26/26
f 131/16/10 133/17/12 149/28/28 148/27/27
f 133/17/12 135/18/14 150/29/29 149/28/28
f 135/18/14 137/19/16 151/30/30 150/29/29
f 137/19/16 139/20/18 152/31/31 151/30/30
f 139/20/18 141/21/20 153/32/32 152/31/31
f 141/21/20 143/255/22 154/257/33 153/32/32
f 145/256/24 144/24/23 155/35/34 156/258/35
f 144/24/23 146/25/25 157/36/36 155/35/34
f 146/25/25 147/26/26 158/37/37 157/36/36
f 147/26/26 148/27/27 159/38/38 158/37/37
f 148/27/27 149/28/28 160/39/39 159/38/38
f 149/28/28 150/29/29 161/40/40 160/39/39
f 150/29/29 151/30/30 162/41/41 161/40/40
f 151/30/30 152/31/31 163/42/42 162/41/41
f 152/31/31 153/32/32 164/43/43 163/42/42
f 153/32/32 154/257/33 165/259/44 164/43/43
f 156/258/35 155/35/34 166/46/45 167/260/46
f 155/35/34 157/36/36 168/47/47 166/46/45
f 157/36/36 158/37/37 169/48/48 168/47/47
f 158/37/37 159/38/38 170/49/49 169/48/48
f 159/38/38 160/39/39 171/50/50 170/49/49
f 160/39/39 161/40/40 172/51/51 171/50/50
f 161/40/40 162/41/41 173/52/52 172/51/51
f 162/41/41 163/42/42 174/53/53 173/52/52
f 163/42/42 164/43/43 175/54/54 174/53/53
f 164/43/43 165/259/44 176/261/55 175/54/54
f 167/260/46 166/46/45 177/57/56 178/262/57
f 166/46/45 168/47/47 179/58/58 177/57/56
f 168/47/47 169/48/48 180/59/59 179/58/58
f 169/48/48 170/49/49 181/60/60 180/59/59
f 170/49/49 171/50/50 182/61/61 181/60/60
f 171/50/50 172/51/51 183/62/62 182/61/61
f 172/51/51 173/52/52 184/63/63 183/62/62
f 173/52/52 174/53/53 185/64/64 184/63/63
f 174/53/53 175/54/54 186/65/65 185/64/64
f 175/54/54 176/261/55 187/263/66 186/65/65
f 178/262/57 177/57/56 188/68/67 189/264/68
f 177/57/56 179/58/58 190/69/69 188/68/67
f 179/58/58 180/59/59 191/70/70 190/69/69
f 180/59/59 181/60/60 192/71/71 191/70/70
f 181/60/60 182/61/61 193/72/72 192/71/71
f 182/61/61 183/62/62 194/73/73 193/72/72
f 183/62/62 184/63/63 195/74/74 194/73/73
f 184/63/63 185/64/64 196/75/75 195/74/74
f 185/64/64 186/65/65 197/76/76 196/75/75
f 186/65/65 187/263/66 198/265/77 197/76/76
f 189/264/68 188/68/67 199/79/78 200/266/79
f 188/68/67 190/69/69 201/80/80 199/79/78
f 190/69/69 191/70/70 202/81/81 201/80/80
f 191/70/70 192/71/71 203/82/82 202/81/81
f 192/71/71 193/72/72 204/83/83 203/82/82
f 193/72/72 194/73/73 205/84/84 204/83/83
f 194/73/73 195/74/74 206/85/85 205/84/84
f 195/74/74 196/75/75 207/86/86 206/85/85
f 196/75/75 197/76/76 208/87/87 207/86/86
f 197/76/76 198/265/77 209/267/88 208/87/87
f 200/266/79 199/79/78 210/90/89 211/268/90
f 199/79/78 201/80/80 212/91/91 210/90/89
f 201/80/80 202/81/81 213/92/92 212/91/91
f 202/81/81 203/82/82 214/93/93 213/92/92
f 203/82/82 204/83/83 215/94/94 214/93/93
f 204/83/83 205/84/84 216/95/95 215/94/94
f 205/84/84 206/85/85 217/96/96 216/95/95
f 206/85/85 207/86/86 218/97/97 217/96/96
f 207/86/86 208/87/87 219/98/98 218/97/97
f 208/87/87 209/267/88 220/269/99 219/98/98
f 211/268/90 210/90/89 221/101/100 222/270/101
f 210/90/89 212/91/91 223/102/102 221/101/100
f 212/91/91 213/92/92 224/103/103 223/102/102
f 213/92/92 214/93/93 225/104/104 224/103/103
f 214/93/93 215/94/94 226/105/105 225/104/104
f 215/94/94 216/95/95 227/106/106 226/105/105
f 216/95/95 217/96/96 228/107/107 227/106/106
f 217/96/96 218/97/97 229/108/108 228/107/107
f 218/97/97 219/98/98 230/109/109 229/108/108
f 219/98/98 220/269/99 231/271/110 230/109/109
f 222/270/101 221/101/100 232/272/111 233/273/112
f 221/101/100 223/102/102 234/274/113 232/272/111
f 223/102/102 224/103/103 235/275/114 234/274/113
f 224/103/103 225/104/104 236/276/115 235/275/114
f 225/104/104 226/105/105 237/277/116 236/276/115
f 226/105/105 227/106/106 238/278/117 237/277/116
f 227/106/106 228/107/107 239/279/118 238/278/117
f 228/107/107 229/108/108 240/280/119 239/279/118
f 229/108/108 230/109/109 241/281/120 240/280/119
f 230/109/109 231/271/110 242/282/121 241/281/120
s 2
f 1/122/122 12/125/123 13/124/124 2/123/125
f 2/123/125 13/124/124 14/127/126 3/126/127
f 3/126/127 14/127/126 15/129/128 4/128/129
f 4/128/129 15/129/128 16/131/130 5/130/131
f 5/130/131 16/131/130 17/133/132 6/132/133
f 6/132/133 17/133/132 18/135/134 7/134/135
f 7/134/135 18/135/134 19/137/136 8/136/137
f 8/136/137 19/137/136 20/139/138 9/138/139
f 9/138/139 20/139/138 21/141/140 10/140/141
f 10/140/141 21/141/140 22/143/142 11/142/143
f 12/125/123 23/145/144 24/144/145 13/124/124
f 13/124/124 24/144/145 25/146/146 14/127/126
f 14/127/126 25/146/146 26/147/147 15/129/128
f 15/129/128 26/147/147 27/148/148 16/131/130
f 16/131/130 27/148/148 28/149/149 17/133/132
f 17/133/132 28/149/149 29/150/150 18/135/134
f 18/135/134 29/150/150 30/151/151 19/137/136
f 19/137/136 30/151/151 31/152/152 20/139/138
f 20/139/138 31/152/152 32/153/153 21/141/140
f 21/141/140 32/153/153 33/154/154 22/143/142
f 23/145/144 34/156/155 35/155/156 24/144/145
f 24/144/145 35/155/156 36/157/157 25/146/146
f 25/146/146 36/157/157 37/158/158 26/147/147
f 26/147/147 37/158/158 38/159/159 27/148/148
f 27/148/148 38/159/159 39/160/160 28/149/149
f 28/149/149 39/160/160 40/161/161 29/150/150
f 29/150/150 40/161/161 41/162/162 30/151/151
f 30/151/151 41/162/162 42/163/163 31/152/152
f 31/152/152 42/163/163 43/164/164 32/153/153
f 32/153/153 43/164/164 44/165/165 33/154/154
f 34/156/155 45/167/166 46/166/167 35/155/156
f 35/155/156 46/166/167 47/168/168 36/157/157
f 36/157/157 47/168/168 48/169/169 37/158/158
f 37/158/158 48/169/169 49/170/170 38/159/159
f 38/159/159 49/170/170 50/171/171 39/160/160
f 39/160/160 50/171/171 51/172/172 40/161/161
f 40/161/161 51/172/172 52/173/173 41/162/162
f 41/162/162 52/173/173 53/174/174 42/163/163
f 42/163/163 53/174/174 54/175/175 43/164/164
f 43/164/164 54/175/175 55/176/176 44/165/165
f 45/167/166 56/178/177 57/177/178 46/166/167
f 46/166/167 57/177/178 58/179/179 47/168/168
f 47/168/168 58/179/179 59/180/180 48/169/169
f 48/169/169 59/180/180 60/181/181 49/170/170
f 49/170/170 60/181/181 61/182/182 50/171/171
f 50/171/171 61/182/182 62/183/183 51/172/172
f 51/172/172 62/183/183 63/184/184 52/173/173
f 52/173/173 63/184/184 64/185/185 53/174/174
f 53/174/174 64/185/185 65/186/186 54/175/175
f 54/175/175 65/186/186 66/187/187 55/176/176
f 56/178/177 67/189/188 68/188/189 57/177/178
f 57/177/178 68/188/189 69/190/190 58/179/179
f 58/179/179 69/190/190 70/191/191 59/180/180
f 59/180/180 70/191/191 71/192/192 60/181/181
f 60/181/181 71/192/192 72/193/193 61/182/182
f 61/182/182 72/193/193 73/194/194 62/183/183
f 62/183/183 73/194/194 74/195/195 63/184/184
f 63/184/184 74/195/195 75/196/196 64/185/185
f 64/185/185 75/196/196 76/197/197 65/186/186
f 65/186/186 76/197/197 77/198/198 66/187/187
f 67/189/188 78/200/199 79/199/200 68/188/189
f 68/188/189 79/199/200 80/201/201 69/190/190
f 69/190/190 80/201/201 81/202/202 70/191/191
f 70/191/191 81/202/202 82/203/203 71/192/192
f 71/192/192 82/203/203 83/204/204 72/193/193
f 72/193/193 83/204/204 84/205/205 73/194/194
f 73/194/194 84/205/205 85/206/206 74/195/195
f 74/195/195 85/206/206 86/207/207 75/196/196
f 75/196/196 86/207/207 87/208/208 76/197/197
f 76/197/197 87/208/208 88/209/209 77/198/198
f 78/200/199 89/211/210 90/210/211 79/199/200
f 79/199/200 90/210/211 91/212/212 80/201/201
f 80/201/201 91/212/212 92/213/213 81/202/202
f 81/202/202 92/213/213 93/214/214 82/203/203
f 82/203/203 93/214/214 94/215/215 83/204/204
f 83/204/204 94/215/215 95/216/216 84/205/205
f 84/205/205 95/216/216 96/217/217 85/206/206
f 85/206/206 96/217/217 97/218/218 86/207/207
f 86/207/207 97/218/218 98/219/219 87/208/208
f 87/208/208 98/219/219 99/220/220 88/209/209
f 89/211/210 100/222/221 101/221/222 90/210/211
f 90/210/211 101/221/222 102/223/223 91/212/212
f 91/212/212 102/223/223 103/224/224 92/213/213
f 92/213/213 103/224/224 104/225/225 93/214/214
f 93/214/214 104/225/225 105/226/226 94/215/215
f 94/215/215 105/226/226 106/227/227 95/216/216
f 95/216/216 106/227/227 107/228/228 96/217/217
f 96/217/217 107/228/228 108/229/229 97/218/218
f 97/218/218 108/229/229 109/230/230 98/219/219
f 98/219/219 109/230/230 110/231/231 99/220/220
f 100/222/221 111/233/232 112/232/233 101/221/222
f 101/221/222 112/232/233 113/234/234 102/223/223
f 102/223/223 113/234/234 114/235/235 103/224/224
f 103/224/224 114/235/235 115/236/236 104/225/225
f 104/225/225 115/236/236 116/237/237 105/226/226
f 105/226/226 116/237/237 117/238/238 106/227/227
f 106/227/227 117/238/238 118/239/239 107/228/228
f 107/228/228 118/239/239 119/240/240 108/229/229
f 108/229/229 119/240/240 120/241/241 109/230/230
f 109/230/230 120/241/241 121/242/242 110/231/231
s off
f 1/1/243 122/243/244 123/244/245 2/2/246
f 12/12/247 125/245/248 122/243/249 1/1/250
f 2/2/251 123/244/252 126/246/253 3/3/254
f 3/3/255 126/246/256 128/247/257 4/4/258
f 4/4/259 128/247/260 130/248/261 5/5/262
f 5/5/263 130/248/264 132/249/265 6/6/266
f 6/6/267 132/249/268 134/250/269 7/7/270
f 7/7/271 134/250/272 136/251/273 8/8/274
f 8/8/275 136/251/276 138/252/277 9/9/278
f 9/9/279 138/252/280 140/253/281 10/10/282
f 10/10/283 140/253/284 142/254/285 11/11/286
f 11/11/287 142/254/288 143/255/289 22/22/290
f 23/23/291 145/256/292 125/245/293 12/12/294
f 22/22/295 143/255/296 154/257/297 33/33/298
f 34/34/299 156/258/300 145/256/301 23/23/302
f 33/33/303 154/257/304 165/259/305 44/44/306
f 45/45/307 167/260/308 156/258/309 34/34/310
f 44/44/311 165/259/312 176/261/313 55/55/314
f 56/56/315 178/262/316 167/260/317 45/45/318
f 55/55/319 176/261/320 187/263/321 66/66/322
f 67/67/323 189/264/324 178/262/325 56/56/326
f 66/66/327 187/263/328 198/265/329 77/77/330
f 78/78/331 200/266/332 189/264/333 67/67/334
f 77/77/335 198/265/336 209/267/337 88/88/338
f 89/89/339 211/268/340 200/266/341 78/78/342
f 88/88/343 209/267/344 220/269/345 99/99/346
f 100/100/347 222/270/348 211/268/349 89/89/350
f 99/99/351 220/269/352 231/271/353 110/110/354
f 112/112/355 232/272/356 233/273/357 111/111/358
f 111/111/359 233/273/360 222/270/361 100/100/362
f 113/113/363 234/274/364 232/272/365 112/112/366
f 114/114/367 235/275/368 234/274/369 113/113/370
f 115/115/371 236/276/372 235/275/373 114/114/374
f 116/116/375 237/277/376 236/276/377 115/115/378
f 117/117/379 238/278/380 237/277/381 116/116/382
f 118/118/383 239/279/384 238/278/385 117/117/386
f 119/119/387 240/280/388 239/279/389 118/118/390
f 120/120/391 241/281/392 240/280/393 119/119/394
f 110/110/395 231/271/396 242/282/397 121/121/398
f 121/121/399 242/282/400 241/281/401 120/120/402
